<?xml version="1.0" encoding="UTF-8"?>
<svg width="373px" height="512px" viewBox="0 0 373 512" version="1.1" xmlns="http://www.w3.org/2000/svg" xmlns:xlink="http://www.w3.org/1999/xlink">
    <!-- Generator: Sketch 52.1 (67048) - http://www.bohemiancoding.com/sketch -->
    <title>man-1</title>
    <desc>Created with Sketch.</desc>
    <g id="Home-Page" stroke="none" stroke-width="1" fill="none" fill-rule="evenodd" opacity="0.138881138">
        <g id="Kiran-Capoor" transform="translate(-955.000000, -145.000000)">
            <g id="Right-Banner-Fixed" transform="translate(879.000000, 0.000000)">
                <g id="Banner-Title-2">
                    <g id="man-1" transform="translate(74.000000, 145.000000)">
                        <g id="Group" transform="translate(0.000000, 57.279139)">
                            <rect id="Rectangle" fill="#FDCC9B" x="150.040101" y="323.851046" width="76.5327407" height="85.7182318"></rect>
                            <path d="M150.040101,333.947796 C150.040101,333.947796 182.233581,354.44852 226.572842,349.702163 L226.572842,323.851046 L150.040101,323.851046 L150.040101,333.947796 Z" id="Path" fill="#FCBC85"></path>
                            <ellipse id="Oval" fill="#FCBC85" cx="39.6840291" cy="190.937407" rx="37.3433952" ry="42.6052652"></ellipse>
                            <ellipse id="Oval" fill="#FCBC85" cx="336.928915" cy="190.937407" rx="37.3433952" ry="42.6052652"></ellipse>
                            <path d="M336.78051,109.559372 C336.78051,46.8022639 290.860865,0.88522306 188.307774,0.88522306 C85.7546822,0.88522306 39.8350377,46.8048675 39.8350377,109.559372 C39.8350377,172.316479 29.1212351,337.626679 188.307774,337.626679 C347.494312,337.626679 336.78051,172.319083 336.78051,109.559372 Z" id="Path" fill="#FDCC9B"></path>
                            <g transform="translate(88.522306, 114.558278)">
                                <g transform="translate(10.414389, 46.864750)" id="Oval">
                                    <ellipse fill="#86461B" cx="17.0535619" cy="19.3134843" rx="16.0720057" ry="17.6029209"></ellipse>
                                    <circle fill="#FFFFFF" cx="10.0472817" cy="11.5417465" r="4.8062405"></circle>
                                </g>
                                <path d="M1.75742813,22.5523593 C9.35732847,26.3536112 21.5603887,9.63851697 49.4943835,24.1796075 C54.5870196,26.8300695 57.6254176,1.5074828 27.6840494,1.5074828 C1.75742813,1.5074828 -2.83531739,20.2585901 1.75742813,22.5523593 Z" id="Path" fill="#212121"></path>
                                <g transform="translate(156.215834, 46.864750)" id="Oval">
                                    <ellipse fill="#86461B" cx="17.8710914" cy="19.3134843" rx="16.0720057" ry="17.6029209"></ellipse>
                                    <circle fill="#FFFFFF" cx="10.8648113" cy="11.5417465" r="4.8062405"></circle>
                                </g>
                                <path d="M197.813507,22.5523593 C190.213607,26.3536112 178.010547,9.63851697 150.076552,24.1796075 C144.983916,26.8300695 141.945518,1.5074828 171.88949,1.5074828 C197.813507,1.5074828 202.403649,20.2585901 197.813507,22.5523593 Z" id="Path" fill="#212121"></path>
                            </g>
                            <path d="M188.307774,242.650055 C172.425831,242.650055 162.860214,230.785463 162.860214,236.526394 C162.860214,242.264723 167.45296,253.171192 188.307774,253.171192 C209.162588,253.171192 213.755333,242.264723 213.755333,236.526394 C213.755333,230.788066 204.187113,242.650055 188.307774,242.650055 Z" id="Path" fill="#FCBC85"></path>
                            <path d="M188.307774,295.427575 C182.814184,295.427575 179.505011,291.324305 179.505011,293.31085 C179.505011,295.297395 181.093206,299.070007 188.307774,299.070007 C195.522342,299.070007 197.107932,295.297395 197.107932,293.31085 C197.107932,291.324305 193.79876,295.427575 188.307774,295.427575 Z" id="Path" fill="#FCBC85"></path>
                            <path d="M188.307774,280.803169 C163.136196,280.803169 147.970242,270.552807 147.970242,273.151197 C147.970242,275.746983 155.2499,285.97131 188.307774,285.97131 C221.365648,285.97131 228.645306,275.746983 228.645306,273.151197 C228.642702,270.550203 213.479352,280.803169 188.307774,280.803169 Z" id="Path" fill="#F7945E"></path>
                        </g>
                        <path d="M188.307774,415.567966 L188.307774,512 L2.33803032,512 C2.33803032,472.969474 100.293169,415.567966 188.307774,415.567966 Z" id="Path" fill="#C9C9C9"></path>
                        <path d="M188.307774,415.567966 L188.307774,512 L374.274913,512 C374.274913,472.969474 276.317171,415.567966 188.307774,415.567966 Z" id="Path" fill="#C9C9C9"></path>
                        <path d="M188.307774,415.567966 C169.58791,415.567966 150.420227,418.184581 131.838353,422.652354 C131.963326,422.81638 152.451033,449.242892 188.307774,449.242892 C221.514053,449.242892 243.589954,426.612425 246.789775,423.128812 C227.580434,418.361625 207.701969,415.567966 188.307774,415.567966 Z" id="Path" fill="#000000"></path>
                        <path d="M150.040101,418.905777 C150.040101,418.905777 161.232966,432.788158 188.30517,432.788158 C215.377374,432.788158 226.572842,418.905777 226.572842,418.905777 C226.572842,418.905777 186.870588,404.453209 150.040101,418.905777 Z" id="Path" fill="#FDCC9B"></path>
                        <path d="M188.30517,362.186411 L188.30517,397.774982 C108.330474,397.774982 81.9299978,355.133267 74.1087917,343.247845 C68.3105807,334.429461 111.735979,374.241067 150.040101,374.241067 C166.877565,374.241067 166.112107,362.186411 188.30517,362.186411 Z" id="Path" fill="#212121"></path>
                        <path d="M188.30517,362.186411 L188.30517,397.774982 C268.28247,397.774982 294.682946,355.133267 302.501548,343.247845 C308.299759,334.429461 264.874361,374.241067 226.570239,374.241067 C209.735379,374.241067 210.500837,362.186411 188.30517,362.186411 Z" id="Path" fill="#212121"></path>
                        <path d="M189.312762,125.511612 L189.312762,0 C58.2008126,0 33.711377,48.9814748 27.5877163,140.81816 C21.4640556,232.657449 35.2891569,264.27293 44.448612,264.155768 C53.6080671,264.036003 48.6846647,158.866296 61.262643,136.225415 C84.223767,94.8985156 125.266874,125.511612 189.312762,125.511612 Z" id="Path" fill="#212121"></path>
                        <path d="M189.312762,125.511612 L189.312762,0 C320.424712,0 344.914147,48.9814748 351.037808,140.81816 C357.161469,232.657449 343.336367,264.27293 334.176912,264.155768 C325.017457,264.036003 329.94086,158.866296 317.362881,136.225415 C294.404361,94.8985156 253.358651,125.511612 189.312762,125.511612 Z" id="Path" fill="#212121"></path>
                        <path d="M106.783937,429.877336 C48.9684568,449.409522 2.34063391,485.070994 2.34063391,512 L106.789144,512 L106.789144,429.877336 L106.783937,429.877336 Z" id="Path" fill="#B71C17"></path>
                        <path d="M112.347824,512 L112.347824,423.985395 C112.347824,423.985395 97.424005,429.726327 92.258468,432.402825 L77.0274242,511.997396 L112.347824,511.997396 L112.347824,512 Z" id="Path" fill="#212121"></path>
                        <path d="M269.83161,429.877336 C327.647091,449.409522 374.274913,485.070994 374.274913,512 L269.826403,512 L269.826403,429.877336 L269.83161,429.877336 Z" id="Path" fill="#B71C17"></path>
                        <path d="M264.265119,512 L264.265119,423.985395 C264.265119,423.985395 279.188939,429.726327 284.354476,432.402825 L299.58552,511.997396 L264.265119,511.997396 L264.265119,512 Z" id="Path" fill="#212121"></path>
                    </g>
                </g>
            </g>
        </g>
    </g>
</svg>